<svg width="32" height="32" viewBox="0 0 32 32" fill="none" xmlns="http://www.w3.org/2000/svg">
<path d="M9.86491 29.2535C14.5767 29.2535 18.3965 25.4028 18.3965 20.6529C18.3965 15.9028 14.5767 12.0522 9.86491 12.0522C5.15308 12.0522 1.33337 15.9028 1.33337 20.6529C1.33337 25.4028 5.15308 29.2535 9.86491 29.2535Z" fill="#04E061"/>
<path d="M24.6645 28.1682C27.5117 28.1682 29.8197 25.8414 29.8197 22.9712C29.8197 20.1009 27.5117 17.7742 24.6645 17.7742C21.8173 17.7742 19.5092 20.1009 19.5092 22.9712C19.5092 25.8414 21.8173 28.1682 24.6645 28.1682Z" fill="#FF4053"/>
<path d="M11.4962 10.9316C13.2581 10.9316 14.6864 9.4917 14.6864 7.71554C14.6864 5.93938 13.2581 4.49951 11.4962 4.49951C9.73433 4.49951 8.30603 5.93938 8.30603 7.71554C8.30603 9.4917 9.73433 10.9316 11.4962 10.9316Z" fill="#965EEB"/>
<path d="M22.6618 16.652C26.4927 16.652 29.5983 13.5213 29.5983 9.6594C29.5983 5.79745 26.4927 2.66675 22.6618 2.66675C18.8309 2.66675 15.7253 5.79745 15.7253 9.6594C15.7253 13.5213 18.8309 16.652 22.6618 16.652Z" fill="#00AAFF"/>
</svg>
