<svg width="32" height="32" viewBox="0 0 32 32" fill="none" xmlns="http://www.w3.org/2000/svg">
<path opacity="0.5" d="M2.66675 16.0001C2.66675 9.71469 2.66675 6.57199 4.61937 4.61937C6.57199 2.66675 9.71469 2.66675 16.0001 2.66675C22.2855 2.66675 25.4282 2.66675 27.3808 4.61937C29.3334 6.57199 29.3334 9.71469 29.3334 16.0001C29.3334 22.2855 29.3334 25.4282 27.3808 27.3808C25.4282 29.3334 22.2855 29.3334 16.0001 29.3334C9.71469 29.3334 6.57199 29.3334 4.61937 27.3808C2.66675 25.4282 2.66675 22.2855 2.66675 16.0001Z" fill="#4EC536"/>
<path d="M29.3333 6.66675C29.3333 8.87589 27.5424 10.6667 25.3333 10.6667C23.1241 10.6667 21.3333 8.87589 21.3333 6.66675C21.3333 4.45761 23.1241 2.66675 25.3333 2.66675C27.5424 2.66675 29.3333 4.45761 29.3333 6.66675Z" fill="#307E1D"/>
<path d="M19.3333 14.3333C18.781 14.3333 18.3333 13.8855 18.3333 13.3333C18.3333 12.781 18.781 12.3333 19.3333 12.3333H22.6666C23.2189 12.3333 23.6666 12.781 23.6666 13.3333V16.6666C23.6666 17.2189 23.2189 17.6666 22.6666 17.6666C22.1143 17.6666 21.6666 17.2189 21.6666 16.6666V15.7475L18.9832 18.4309C18.0719 19.3421 16.5946 19.3421 15.6833 18.4309L13.569 16.3165C13.4388 16.1863 13.2277 16.1863 13.0975 16.3165L10.0404 19.3737C9.64983 19.7642 9.01667 19.7642 8.62614 19.3737C8.23562 18.9832 8.23562 18.35 8.62614 17.9595L11.6833 14.9023C12.5946 13.9911 14.0719 13.9911 14.9832 14.9023L17.0975 17.0167C17.2277 17.1468 17.4388 17.1468 17.569 17.0167L20.2524 14.3333H19.3333Z" fill="#307E1D"/>
</svg>
