<svg width="32" height="32" viewBox="0 0 32 32" fill="none" xmlns="http://www.w3.org/2000/svg">
<path fill-rule="evenodd" clip-rule="evenodd" d="M24.5967 4.09749C23.1842 3.65532 21.8916 4.78261 21.8916 6.16007V10.9942C20.1624 11.3302 18.1521 11.5246 16.0001 11.5246C13.8481 11.5246 11.8378 11.3302 10.1086 10.9942V6.16007C10.1086 4.78261 8.81599 3.65532 7.40344 4.09749C6.09489 4.50711 4.96262 5.02702 4.13718 5.65662C3.32613 6.27524 2.66675 7.1182 2.66675 8.1753V24.105C2.66675 24.3921 2.71659 24.6661 2.80548 24.9246C2.88525 25.1565 2.99647 25.3758 3.13135 25.5808C3.56258 26.236 4.25229 26.773 5.05154 27.212C5.86235 27.6574 6.85213 28.038 7.96364 28.3485C10.1875 28.9697 12.9823 29.3333 16.0001 29.3333C18.5347 29.3333 20.9089 29.0769 22.9187 28.6283C24.9091 28.184 26.616 27.535 27.7585 26.7016C28.0364 26.4989 28.2987 26.2715 28.5266 26.0195C29.0061 25.4894 29.3334 24.8506 29.3334 24.105V8.1753C29.3334 7.1182 28.674 6.27524 27.863 5.65662C27.0375 5.02702 25.9053 4.50711 24.5967 4.09749ZM27.4729 10.9688C27.4371 10.9922 27.401 11.0153 27.3648 11.0381C26.2686 11.7268 24.7629 12.2781 23.0268 12.6742C20.9941 13.1379 18.58 13.4036 16.0001 13.4036C13.4202 13.4036 11.0061 13.1379 8.97341 12.6742C7.23728 12.2781 5.73161 11.7268 4.63535 11.0381C4.59913 11.0153 4.56307 10.9922 4.52721 10.9688V23.1856L8.3015 19.6184L10.0032 18.1799C11.24 17.1343 13.093 17.1917 14.2593 18.3184L18.3785 22.2981C18.7191 22.6272 19.2739 22.6782 19.6787 22.4033L19.965 22.2089C21.4088 21.2286 23.3565 21.339 24.6744 22.485L27.2093 24.6891C27.4169 24.4388 27.4729 24.2394 27.4729 24.105V10.9688Z" fill="white"/>
<path opacity="0.5" d="M25.6128 17.12C25.6128 18.1577 24.7798 18.999 23.7523 18.999C22.7248 18.999 21.8918 18.1577 21.8918 17.12C21.8918 16.0822 22.7248 15.241 23.7523 15.241C24.7798 15.241 25.6128 16.0822 25.6128 17.12Z" fill="white"/>
</svg>
