<svg width="32" height="32" viewBox="0 0 32 32" fill="none" xmlns="http://www.w3.org/2000/svg">
<path opacity="0.5" d="M16.0001 29.3334C9.71469 29.3334 6.57199 29.3334 4.61937 27.3808C2.66675 25.4282 2.66675 22.2855 2.66675 16.0001C2.66675 9.71469 2.66675 6.57199 4.61937 4.61937C6.57199 2.66675 9.71469 2.66675 16.0001 2.66675C22.2855 2.66675 25.4282 2.66675 27.3808 4.61937C29.3334 6.57199 29.3334 9.71469 29.3334 16.0001C29.3334 22.2855 29.3334 25.4282 27.3808 27.3808C25.4282 29.3334 22.2855 29.3334 16.0001 29.3334Z" fill="#4A81DE"/>
<path d="M16 10.3333C15.1716 10.3333 14.5 11.0048 14.5 11.8333C14.5 12.3855 14.0523 12.8333 13.5 12.8333C12.9477 12.8333 12.5 12.3855 12.5 11.8333C12.5 9.90026 14.067 8.33325 16 8.33325C17.933 8.33325 19.5 9.90026 19.5 11.8333C19.5 12.781 19.122 13.6426 18.5106 14.2719C18.3876 14.3985 18.2702 14.5157 18.1583 14.6276L18.1583 14.6276C17.8705 14.9151 17.6184 15.167 17.3972 15.4512C17.1052 15.8265 17 16.1023 17 16.3333V17.3333C17 17.8855 16.5523 18.3333 16 18.3333C15.4477 18.3333 15 17.8855 15 17.3333V16.3333C15 15.4597 15.4067 14.7525 15.8189 14.2229C16.1239 13.831 16.5073 13.4484 16.8184 13.1379L16.8184 13.1379C16.9122 13.0442 16.9995 12.9571 17.0761 12.8783C17.3394 12.6072 17.5 12.24 17.5 11.8333C17.5 11.0048 16.8284 10.3333 16 10.3333Z" fill="#3B5ED3"/>
<path d="M16 22.6666C16.7364 22.6666 17.3333 22.0696 17.3333 21.3333C17.3333 20.5969 16.7364 19.9999 16 19.9999C15.2636 19.9999 14.6667 20.5969 14.6667 21.3333C14.6667 22.0696 15.2636 22.6666 16 22.6666Z" fill="#3B5ED3"/>
</svg>
