<svg width="42" height="42" viewBox="0 0 42 42" fill="none" xmlns="http://www.w3.org/2000/svg">
<path d="M20.2344 39.375H21.7656C30.0956 39.375 34.2453 39.375 36.8178 36.8025C39.375 34.23 39.375 30.065 39.375 21.7656V20.2037C39.375 11.935 39.375 7.77 36.8178 5.1975C34.2453 2.625 30.0803 2.625 21.7656 2.625H20.2344C11.9044 2.625 7.75469 2.625 5.18219 5.1975C2.625 7.77 2.625 11.935 2.625 20.2344V21.7963C2.625 30.065 2.625 34.23 5.1975 36.8025C7.77 39.375 11.935 39.375 20.2344 39.375Z" fill="url(#paint0_linear_421_90)"/>
<path d="M22.822 25.5506L26.9647 32.1562H23.3376L17.4873 22.8227V22.8042C17.4761 22.7857 17.4628 22.7651 17.4494 22.7404L17.4293 22.7075L17.4047 22.6705L17.3846 22.6355H22.7416C23.2031 22.6464 23.6519 22.4963 23.9983 22.2151C24.3447 21.934 24.5631 21.5426 24.6097 21.1193C24.6562 20.6961 24.5276 20.2723 24.2495 19.9327C23.9714 19.5932 23.5643 19.3631 23.1099 19.2884C22.9812 19.2659 22.8504 19.2549 22.7193 19.2555C20.264 19.2555 18.4226 19.2555 16.7373 19.2555H16.5833L12.9919 24.9889H9.38037L19.7797 8.53125H23.3153L18.4047 16.3713H22.8577C23.8327 16.3841 24.7821 16.6611 25.5875 17.1677C26.3929 17.6743 27.0188 18.3881 27.3872 19.2202C27.7555 20.0523 27.8501 20.9659 27.6591 21.8472C27.4681 22.7285 26.9999 23.5385 26.313 24.1763C25.5003 24.9546 24.4056 25.4305 23.2372 25.5135L22.822 25.5506Z" fill="white"/>
<path d="M33.0054 21.0022C33.0081 22.3373 32.7242 23.6592 32.1709 24.8879C31.7084 25.9244 31.0621 26.8787 30.2597 27.71C30.146 27.8295 30.028 27.947 29.9079 28.0604C29.3129 28.6232 28.649 29.117 27.9302 29.5312C27.5248 28.8708 26.9992 28.0098 26.4287 27.088C27.3939 26.5214 28.2121 25.7575 28.8232 24.8525C29.4343 23.9476 29.8225 22.9246 29.9594 21.8591C29.9957 21.5748 30.0136 21.2886 30.013 21.0022C30.012 19.1152 29.2231 17.3046 27.8176 15.9635C26.412 14.6224 24.5032 13.8588 22.5054 13.8386L24.1613 11.1562C24.9788 11.2831 25.7774 11.5014 26.5402 11.8066C26.6989 11.8714 26.8555 11.9389 27.01 12.0092C29.3259 13.0665 31.1556 14.8832 32.1581 17.1205C32.2825 17.3961 32.3919 17.6756 32.4884 17.9593C32.827 18.9421 33.0014 19.9687 33.0054 21.0022Z" fill="#ED1C24"/>
<defs>
<linearGradient id="paint0_linear_421_90" x1="39.375" y1="2.625" x2="2.625" y2="39.375" gradientUnits="userSpaceOnUse">
<stop offset="0.278445" stop-color="#3A5DD2"/>
<stop offset="0.976452" stop-color="#5091E3"/>
</linearGradient>
</defs>
</svg>
